#!OML:ASF F:\VICON\USERDATA\INSTALL\rory3\rory3.ASF
:FULLY-SPECIFIED
:DEGREES
3390
root -3.88929 15.7342 -2.71488 5.14858 26.9366 -4.7426
lowerback 26.5353 -1.73572 -1.21115
upperback 5.30896 -2.90191 -4.53749
thorax -8.98639 -1.33314 -3.40262
lowerneck -21.7018 -10.941 -13.5776
upperneck 12.307 -13.977 16.321
head 9.64928 -5.6763 5.65847
rclavicle -9.54166e-015 9.54166e-015
rhumerus 13.3837 -19.3327 -23.5897
rradius 60.4445
rwrist 1.29414
rhand -13.6497 6.66674
rfingers 7.12502
rthumb 12.4668 -22.9414
lclavicle -9.54166e-015 9.54166e-015
lhumerus 0.683578 -30.0949 84.3559
lradius 131.62
lwrist -7.34658
lhand -8.90266 7.36851
lfingers 7.12502
lthumb 17.0401 36.6412
rfemur -34.1357 -6.72851 3.26838
rtibia 56.5363
rfoot -16.3012 3.87963
rtoes -18.8673
lfemur -32.2418 -1.83408 18.5856
ltibia 48.1703
lfoot -0.821318 -6.99949
ltoes -37.6251
3391
root -3.96544 15.5965 -2.68085 5.05338 28.4716 -5.4493
lowerback 27.0017 -2.39929 -1.37997
upperback 5.77169 -3.78364 -4.67854
thorax -8.7484 -1.73295 -3.15855
lowerneck -21.4583 -10.4208 -13.7098
upperneck 12.4955 -13.1558 15.8266
head 9.50193 -5.35955 5.66996
rclavicle -3.33958e-014 -1.59028e-014
rhumerus 11.5713 -19.7961 -26.2674
rradius 65.6173
rwrist 0.843459
rhand -14.1594 7.26308
rfingers 7.12502
rthumb 11.9754 -22.3744
lclavicle -3.33958e-014 -1.59028e-014
lhumerus -0.322122 -28.9907 85.1848
lradius 131.82
lwrist -6.53438
lhand -8.66186 6.93832
lfingers 7.12502
lthumb 17.2719 36.1908
rfemur -35.2022 -8.40348 4.14087
rtibia 59.1732
rfoot -17.0908 4.33719
rtoes -21.2257
lfemur -34.1544 -1.36263 19.8346
ltibia 49.4045
lfoot -0.60673 -8.31208
ltoes -38.2072
3392
root -4.0304 15.4536 -2.6608 4.87726 29.8108 -6.17244
lowerback 27.6526 -3.11269 -1.39511
upperback 6.2633 -4.70902 -5.05668
thorax -8.5999 -2.15717 -3.24522
lowerneck -21.0313 -9.92765 -13.8667
upperneck 12.5868 -12.4745 15.776
head 9.35659 -5.07645 5.8171
rclavicle -1.27222e-014 -1.74931e-014
rhumerus 9.25975 -20.0769 -29.0142
rradius 70.541
rwrist 3.14187
rhand -15.0304 7.74736
rfingers 7.12502
rthumb 11.1355 -21.9372
lclavicle -1.27222e-014 -1.74931e-014
lhumerus -1.03508 -27.8469 85.6427
lradius 131.948
lwrist -5.38846
lhand -8.53908 7.03182
lfingers 7.12502
lthumb 17.3901 36.2739
rfemur -36.3423 -9.88244 4.83712
rtibia 61.7893
rfoot -17.0966 5.59239
rtoes -20.9148
lfemur -36.1471 -0.598266 20.891
ltibia 51.1441
lfoot -0.0563318 -9.59331
ltoes -39.157
3393
root -4.08683 15.306 -2.64823 4.60647 30.7487 -6.84948
lowerback 28.6268 -3.64941 -1.40021
upperback 6.84054 -5.41768 -5.59832
thorax -8.5228 -2.47473 -3.58094
lowerneck -20.5785 -9.66141 -14.2028
upperneck 12.3618 -12.1066 16.1234
head 9.19326 -4.91753 6.07126
rclavicle 2.06736e-014 9.54166e-015
rhumerus 6.43624 -20.4194 -31.5365
rradius 75.1338
rwrist 5.46347
rhand -16.4346 8.21871
rfingers 7.12502
rthumb 9.78086 -21.5341
lclavicle 2.06736e-014 9.54166e-015
lhumerus -0.97218 -26.91 85.8369
lradius 131.751
lwrist -4.38614
lhand -8.80313 7.35241
lfingers 7.12502
lthumb 17.1359 36.6168
rfemur -37.5318 -11.0637 5.34078
rtibia 64.4413
rfoot -16.5926 7.10566
rtoes -20.0097
lfemur -37.8857 0.451207 21.7194
ltibia 53.1452
lfoot 0.416779 -10.4597
ltoes -38.6635
3394
root -4.14304 15.1527 -2.63588 4.3376 31.2325 -7.48039
lowerback 29.8272 -3.81098 -1.58393
upperback 7.33545 -5.70986 -6.12749
thorax -8.6028 -2.58926 -3.9373
lowerneck -20.0837 -9.56025 -14.6998
upperneck 12.0251 -11.9727 16.7433
head 9.05494 -4.85514 6.40599
rclavicle -7.95139e-015 -7.95139e-014
rhumerus 2.92455 -20.5246 -33.3331
rradius 79.5031
rwrist 6.17999
rhand -17.9045 8.54901
rfingers 7.12502
rthumb 8.36251 -21.2655
lclavicle -7.95139e-015 -7.95139e-014
lhumerus -0.625012 -26.5278 86.2067
lradius 131.237
lwrist -3.85474
lhand -9.72385 7.56686
lfingers 7.12502
lthumb 16.2496 36.9059
rfemur -38.9316 -11.9751 5.79905
rtibia 67.1401
rfoot -16.0689 8.10913
rtoes -20.8633
lfemur -39.2632 1.93803 22.3513
ltibia 55.1844
lfoot 0.172739 -11.1939
ltoes -37.5441
